<svg xmlns="http://www.w3.org/2000/svg" width="36" height="31.504" viewBox="0 0 36 31.504">
  <defs>
    <style>
      .cls-1 {
        fill: #707070;
      }
    </style>
  </defs>
  <path id="Icon_awesome-cubes" data-name="Icon awesome-cubes" class="cls-1" d="M34.355,17.592l-6.792-2.545V7.418a2.531,2.531,0,0,0-1.645-2.37L18.886,2.412a2.5,2.5,0,0,0-1.779,0L10.076,5.048A2.531,2.531,0,0,0,8.43,7.418v7.629L1.638,17.592A2.534,2.534,0,0,0,0,19.962V27.7a2.534,2.534,0,0,0,1.4,2.264L8.43,33.483a2.517,2.517,0,0,0,2.264,0L18,29.827l7.305,3.656a2.517,2.517,0,0,0,2.264,0L34.6,29.967A2.534,2.534,0,0,0,36,27.7V19.962a2.531,2.531,0,0,0-1.645-2.37ZM25.172,15.1,19.2,17.346v-4.8l5.977-2.6ZM10.828,7.32,18,4.634,25.172,7.32v.042L18,10.273,10.828,7.362Zm5.906,20.468-5.977,2.988V25.214l5.977-2.728Zm0-7.875L9.563,22.823,2.391,19.912V19.87l7.172-2.686,7.172,2.686Zm16.875,7.875-5.977,2.988V25.214l5.977-2.728Zm0-7.875-7.172,2.911-7.172-2.911V19.87l7.172-2.686,7.172,2.686Z" transform="translate(0 -2.248)"/>
</svg>
