<svg xmlns="http://www.w3.org/2000/svg" width="15.819" height="21.091" viewBox="0 0 15.819 21.091">
  <path id="Icon_awesome-clipboard-list" data-name="Icon awesome-clipboard-list" d="M13.841,2.636h-3.3a2.636,2.636,0,0,0-5.273,0h-3.3A1.978,1.978,0,0,0,0,4.614v14.5a1.978,1.978,0,0,0,1.977,1.977H13.841a1.978,1.978,0,0,0,1.977-1.977V4.614A1.978,1.978,0,0,0,13.841,2.636ZM3.955,17.466a.989.989,0,1,1,.989-.989A.986.986,0,0,1,3.955,17.466Zm0-3.955a.989.989,0,1,1,.989-.989A.986.986,0,0,1,3.955,13.512Zm0-3.955a.989.989,0,1,1,.989-.989A.986.986,0,0,1,3.955,9.557ZM7.909,1.648a.989.989,0,1,1-.989.989A.986.986,0,0,1,7.909,1.648Zm5.273,15.159a.331.331,0,0,1-.33.33H6.921a.331.331,0,0,1-.33-.33v-.659a.331.331,0,0,1,.33-.33h5.932a.331.331,0,0,1,.33.33Zm0-3.955a.331.331,0,0,1-.33.33H6.921a.331.331,0,0,1-.33-.33v-.659a.331.331,0,0,1,.33-.33h5.932a.331.331,0,0,1,.33.33Zm0-3.955a.331.331,0,0,1-.33.33H6.921a.331.331,0,0,1-.33-.33V8.239a.331.331,0,0,1,.33-.33h5.932a.331.331,0,0,1,.33.33Z"/>
</svg>
