<svg xmlns="http://www.w3.org/2000/svg" width="37.798" height="36.854" viewBox="0 0 37.798 36.854">
  <path id="Icon_awesome-github" data-name="Icon awesome-github" d="M12.643,30.237c0,.152-.175.274-.4.274-.251.023-.427-.1-.427-.274,0-.152.175-.274.4-.274C12.445,29.94,12.643,30.062,12.643,30.237Zm-2.37-.343c-.053.152.1.328.328.373a.357.357,0,0,0,.472-.152c.046-.152-.1-.328-.328-.4A.391.391,0,0,0,10.273,29.894Zm3.368-.13c-.221.053-.373.2-.351.373.023.152.221.251.45.2s.373-.2.351-.351S13.862,29.742,13.641,29.765ZM18.655.563A18.274,18.274,0,0,0,0,19.157,19.106,19.106,0,0,0,12.917,37.385c.975.175,1.318-.427,1.318-.922,0-.472-.023-3.079-.023-4.679,0,0-5.334,1.143-6.455-2.271,0,0-.869-2.218-2.119-2.789,0,0-1.745-1.2.122-1.174A4.023,4.023,0,0,1,8.7,27.517a4.028,4.028,0,0,0,5.555,1.593,4.235,4.235,0,0,1,1.219-2.568c-4.26-.472-8.558-1.09-8.558-8.421a5.776,5.776,0,0,1,1.8-4.489,7.2,7.2,0,0,1,.2-5.174c1.593-.5,5.258,2.058,5.258,2.058a18,18,0,0,1,9.572,0S27.411,7.955,29,8.457a7.2,7.2,0,0,1,.2,5.174,5.924,5.924,0,0,1,1.966,4.489c0,7.354-4.489,7.941-8.749,8.421a4.507,4.507,0,0,1,1.3,3.536c0,2.568-.023,5.746-.023,6.371,0,.5.351,1.1,1.318.922A18.93,18.93,0,0,0,37.8,19.157C37.8,8.587,29.225.563,18.655.563ZM7.407,26.846c-.1.076-.076.251.053.4.122.122.3.175.4.076.1-.076.076-.251-.053-.4C7.682,26.8,7.506,26.747,7.407,26.846Zm-.823-.617c-.053.1.023.221.175.3a.227.227,0,0,0,.328-.053c.053-.1-.023-.221-.175-.3C6.76,26.13,6.638,26.153,6.584,26.229Zm2.469,2.713c-.122.1-.076.328.1.472.175.175.4.2.5.076.1-.1.053-.328-.1-.472C9.381,28.843,9.152,28.82,9.053,28.942Zm-.869-1.12c-.122.076-.122.274,0,.45s.328.251.427.175a.348.348,0,0,0,0-.472C8.5,27.8,8.307,27.722,8.185,27.822Z" transform="translate(0 -0.563)"/>
</svg>
