<svg xmlns="http://www.w3.org/2000/svg" width="31.876" height="22.313" viewBox="0 0 31.876 22.313">
  <defs>
    <style>
      .cls-1 {
        fill: #707070;
      }
    </style>
  </defs>
  <path id="Icon_awesome-hands" data-name="Icon awesome-hands" class="cls-1" d="M10.2,12.788A1.594,1.594,0,0,0,7.65,14.7l1.9,2.53a.8.8,0,0,1-.075,1.041l-.638.638a.792.792,0,0,1-1.175-.055L3.188,13.485V6.094A1.594,1.594,0,0,0,0,6.094V16.971a2.393,2.393,0,0,0,.523,1.494l5.185,6.689a2.973,2.973,0,0,1,.518,1.081.78.78,0,0,0,.762.578h6.559a.8.8,0,0,0,.8-.8V20.438a6.385,6.385,0,0,0-1.275-3.825L10.2,12.788ZM30.282,4.5a1.592,1.592,0,0,0-1.594,1.594v7.391l-4.473,5.369a.8.8,0,0,1-1.175.055l-.638-.638a.8.8,0,0,1-.075-1.041l1.9-2.53a1.594,1.594,0,0,0-2.55-1.913l-2.869,3.825a6.385,6.385,0,0,0-1.275,3.825v5.578a.8.8,0,0,0,.8.8h6.559a.785.785,0,0,0,.762-.578,2.973,2.973,0,0,1,.518-1.081l5.185-6.689a2.393,2.393,0,0,0,.523-1.494V6.094A1.592,1.592,0,0,0,30.282,4.5Z" transform="translate(0 -4.5)"/>
</svg>
