<svg xmlns="http://www.w3.org/2000/svg" width="17.197" height="17.197" viewBox="0 0 17.197 17.197">
  <path id="Icon_awesome-pen-square" data-name="Icon awesome-pen-square" d="M15.354,19.447H1.843A1.843,1.843,0,0,1,0,17.6V4.093A1.843,1.843,0,0,1,1.843,2.25H15.354A1.843,1.843,0,0,1,17.2,4.093V17.6A1.843,1.843,0,0,1,15.354,19.447ZM9.14,7.85,3.931,13.059l-.242,2.192a.465.465,0,0,0,.511.511l2.192-.242L11.6,10.311a.234.234,0,0,0,0-.326L9.47,7.854a.235.235,0,0,0-.33,0Zm4.1-.491L12.088,6.2a.917.917,0,0,0-1.3,0L9.9,7.09a.234.234,0,0,0,0,.326l2.13,2.13a.234.234,0,0,0,.326,0l.887-.887A.924.924,0,0,0,13.243,7.359Z" transform="translate(0 -2.25)"/>
</svg>
