<svg xmlns="http://www.w3.org/2000/svg" width="20.082" height="12.78" viewBox="0 0 20.082 12.78">
  <defs>
    <style>
      .cls-1 {
        fill: #707070;
      }
    </style>
  </defs>
  <path id="Icon_material-people" data-name="Icon material-people" class="cls-1" d="M15.192,12.977a2.738,2.738,0,1,0-2.738-2.738A2.727,2.727,0,0,0,15.192,12.977Zm-7.3,0a2.738,2.738,0,1,0-2.738-2.738A2.727,2.727,0,0,0,7.89,12.977Zm0,1.826C5.763,14.8,1.5,15.871,1.5,18V20.28H14.28V18C14.28,15.871,10.017,14.8,7.89,14.8Zm7.3,0c-.265,0-.566.018-.885.046A3.852,3.852,0,0,1,16.105,18V20.28h5.477V18C21.582,15.871,17.319,14.8,15.192,14.8Z" transform="translate(-1.5 -7.5)"/>
</svg>
