<svg id="コンポーネント_45_1" data-name="コンポーネント 45 – 1" xmlns="http://www.w3.org/2000/svg" width="41" height="41" viewBox="0 0 41 41">
  <g id="グループ_65" data-name="グループ 65" transform="translate(-595 -533)">
    <circle id="楕円形_4" data-name="楕円形 4" cx="20.5" cy="20.5" r="20.5" transform="translate(595 533)" fill="#1da1f2"/>
    <path id="Icon_awesome-twitter" data-name="Icon awesome-twitter" d="M19.184,7.709c.014.19.014.38.014.57A12.383,12.383,0,0,1,6.729,20.746,12.383,12.383,0,0,1,0,18.779a9.066,9.066,0,0,0,1.058.054A8.776,8.776,0,0,0,6.5,16.961a4.39,4.39,0,0,1-4.1-3.039,5.526,5.526,0,0,0,.828.068,4.635,4.635,0,0,0,1.153-.149A4.383,4.383,0,0,1,.868,9.54V9.486a4.413,4.413,0,0,0,1.981.556A4.389,4.389,0,0,1,1.492,4.181a12.456,12.456,0,0,0,9.036,4.586,4.947,4.947,0,0,1-.109-1,4.386,4.386,0,0,1,7.584-3,8.628,8.628,0,0,0,2.781-1.058,4.37,4.37,0,0,1-1.927,2.415,8.785,8.785,0,0,0,2.523-.678,9.42,9.42,0,0,1-2.2,2.266Z" transform="translate(605.2 541.5)" fill="#fff"/>
  </g>
</svg>
