<svg xmlns="http://www.w3.org/2000/svg" width="25.373" height="25.373" viewBox="0 0 25.373 25.373">
  <defs>
    <style>
      .cls-1 {
        fill: #fa9c89;
      }
    </style>
  </defs>
  <path id="Icon_awesome-user-alt" data-name="Icon awesome-user-alt" class="cls-1" d="M12.687,14.272A7.136,7.136,0,1,0,5.55,7.136,7.138,7.138,0,0,0,12.687,14.272Zm6.343,1.586H16.3a8.627,8.627,0,0,1-7.225,0H6.343A6.343,6.343,0,0,0,0,22.2v.793a2.379,2.379,0,0,0,2.379,2.379H22.995a2.379,2.379,0,0,0,2.379-2.379V22.2A6.343,6.343,0,0,0,19.03,15.858Z"/>
</svg>
